<svg version="1.1" id="Layer_1" xmlns="http://www.w3.org/2000/svg" xmlns:xlink="http://www.w3.org/1999/xlink" x="0px" y="0px"
	 width="100%" viewBox="0 0 600 600" enable-background="new 0 0 600 600" xml:space="preserve">
<path fill="#000000" opacity="1.000000" stroke="none" 
	d="
M337.000000,601.000000 
	C224.666672,601.000000 112.833336,601.000000 1.000000,601.000000 
	C1.000000,401.000000 1.000000,201.000000 1.000000,1.000000 
	C201.000000,1.000000 401.000000,1.000000 601.000000,1.000000 
	C601.000000,201.000000 601.000000,401.000000 601.000000,601.000000 
	C513.166687,601.000000 425.333344,601.000000 337.000000,601.000000 
M397.528900,410.952515 
	C384.483551,390.850830 371.286285,370.845825 358.420563,350.629822 
	C315.630310,283.393188 272.800995,216.180298 230.345932,148.732178 
	C218.737778,130.290359 208.244476,111.049446 203.769974,89.390648 
	C201.747177,79.599327 201.156860,69.512077 199.769302,58.376625 
	C199.290329,59.408337 199.100800,60.296753 198.573990,60.881050 
	C185.798996,75.049774 174.646347,90.369209 166.402664,107.613174 
	C150.941559,139.954407 149.719009,172.378525 165.427216,205.246460 
	C183.671799,243.421494 204.509964,280.166199 226.696304,316.097321 
	C280.978394,404.007996 335.886047,491.532379 390.545319,579.210144 
	C390.857971,579.711731 391.218201,580.183655 391.558411,580.672668 
	C392.101532,580.318665 392.474426,580.206360 392.625275,579.958740 
	C410.021454,551.410889 427.355225,522.824829 444.847107,494.335876 
	C446.761780,491.217438 446.691162,488.991058 444.726349,485.899811 
	C429.018585,461.187195 413.503235,436.352325 397.528900,410.952515 
M446.894196,153.720993 
	C444.646942,122.389832 420.256714,73.519730 400.337952,60.558731 
	C400.337952,64.232071 400.488098,67.856804 400.313385,71.465805 
	C399.233276,93.778267 391.620758,114.189827 380.369843,133.024902 
	C357.603943,171.137161 334.103821,208.811951 310.731598,246.558853 
	C308.764954,249.735107 308.736298,251.748962 310.775452,254.858856 
	C327.468018,280.316132 343.951172,305.910706 360.509888,331.455841 
	C361.369965,332.782654 362.338898,334.038940 363.544769,335.731842 
	C388.708374,292.942352 414.336884,251.128830 435.343994,206.707703 
	C443.173004,190.152695 447.619934,173.032257 446.894196,153.720993 
M199.312500,418.802032 
	C185.022537,441.649658 170.759674,464.514343 156.404144,487.320709 
	C154.826416,489.827271 154.488724,491.803162 156.175293,494.519958 
	C174.147003,523.469238 191.988510,552.499329 209.824081,581.439575 
	C209.873352,581.386047 210.276642,581.062744 210.536972,580.649292 
	C237.660355,537.573914 264.743622,494.473206 291.956268,451.454315 
	C293.656250,448.766907 292.921204,447.053802 291.511444,444.791351 
	C274.445251,417.402618 257.449860,389.969788 240.429932,362.552216 
	C239.790375,361.522003 239.088730,360.530334 238.083725,359.021973 
	C225.037552,379.165466 212.390778,398.692261 199.312500,418.802032 
M275.430237,105.926826 
	C297.072357,98.993637 318.210510,102.171234 339.060089,109.344559 
	C350.294952,113.209938 361.374390,117.527115 372.625183,121.677795 
	C373.972687,118.991425 375.334442,116.517303 376.482941,113.947845 
	C383.872650,97.415466 389.923981,80.548294 388.027740,61.980175 
	C386.773163,49.695080 382.295593,39.655220 370.686951,33.041553 
	C353.664459,23.343510 335.775360,16.780157 316.360901,14.444591 
	C284.911163,10.661175 255.478027,16.030565 228.466858,33.357235 
	C221.211060,38.011562 217.107437,44.266640 214.919266,52.200550 
	C210.161880,69.449966 214.046982,85.848602 220.180634,101.914421 
	C222.749344,108.642632 226.009018,115.107056 228.670135,121.055626 
	C244.633774,115.846451 259.624054,110.954895 275.430237,105.926826 
z"/>
<path fill="#FE79BB" opacity="1.000000" stroke="none" 
	d="
M397.728912,411.253723 
	C413.503235,436.352325 429.018585,461.187195 444.726349,485.899811 
	C446.691162,488.991058 446.761780,491.217438 444.847107,494.335876 
	C427.355225,522.824829 410.021454,551.410889 392.625275,579.958740 
	C392.474426,580.206360 392.101532,580.318665 391.558411,580.672668 
	C391.218201,580.183655 390.857971,579.711731 390.545319,579.210144 
	C335.886047,491.532379 280.978394,404.007996 226.696304,316.097321 
	C204.509964,280.166199 183.671799,243.421494 165.427216,205.246460 
	C149.719009,172.378525 150.941559,139.954407 166.402664,107.613174 
	C174.646347,90.369209 185.798996,75.049774 198.573990,60.881050 
	C199.100800,60.296753 199.290329,59.408337 199.769302,58.376625 
	C201.156860,69.512077 201.747177,79.599327 203.769974,89.390648 
	C208.244476,111.049446 218.737778,130.290359 230.345932,148.732178 
	C272.800995,216.180298 315.630310,283.393188 358.420563,350.629822 
	C371.286285,370.845825 384.483551,390.850830 397.728912,411.253723 
z"/>
<path fill="#FE78BB" opacity="1.000000" stroke="none" 
	d="
M446.911560,154.196869 
	C447.619934,173.032257 443.173004,190.152695 435.343994,206.707703 
	C414.336884,251.128830 388.708374,292.942352 363.544769,335.731842 
	C362.338898,334.038940 361.369965,332.782654 360.509888,331.455841 
	C343.951172,305.910706 327.468018,280.316132 310.775452,254.858856 
	C308.736298,251.748962 308.764954,249.735107 310.731598,246.558853 
	C334.103821,208.811951 357.603943,171.137161 380.369843,133.024902 
	C391.620758,114.189827 399.233276,93.778267 400.313385,71.465805 
	C400.488098,67.856804 400.337952,64.232071 400.337952,60.558731 
	C420.256714,73.519730 444.646942,122.389832 446.911560,154.196869 
z"/>
<path fill="#FE79BB" opacity="1.000000" stroke="none" 
	d="
M199.528259,418.510559 
	C212.390778,398.692261 225.037552,379.165466 238.083725,359.021973 
	C239.088730,360.530334 239.790375,361.522003 240.429932,362.552216 
	C257.449860,389.969788 274.445251,417.402618 291.511444,444.791351 
	C292.921204,447.053802 293.656250,448.766907 291.956268,451.454315 
	C264.743622,494.473206 237.660355,537.573914 210.536972,580.649292 
	C210.276642,581.062744 209.873352,581.386047 209.824081,581.439575 
	C191.988510,552.499329 174.147003,523.469238 156.175293,494.519958 
	C154.488724,491.803162 154.826416,489.827271 156.404144,487.320709 
	C170.759674,464.514343 185.022537,441.649658 199.528259,418.510559 
z"/>
<path fill="#FE79BB" opacity="1.000000" stroke="none" 
	d="
M275.022278,105.995087 
	C259.624054,110.954895 244.633774,115.846451 228.670135,121.055626 
	C226.009018,115.107056 222.749344,108.642632 220.180634,101.914421 
	C214.046982,85.848602 210.161880,69.449966 214.919266,52.200550 
	C217.107437,44.266640 221.211060,38.011562 228.466858,33.357235 
	C255.478027,16.030565 284.911163,10.661175 316.360901,14.444591 
	C335.775360,16.780157 353.664459,23.343510 370.686951,33.041553 
	C382.295593,39.655220 386.773163,49.695080 388.027740,61.980175 
	C389.923981,80.548294 383.872650,97.415466 376.482941,113.947845 
	C375.334442,116.517303 373.972687,118.991425 372.625183,121.677795 
	C361.374390,117.527115 350.294952,113.209938 339.060089,109.344559 
	C318.210510,102.171234 297.072357,98.993637 275.022278,105.995087 
z"/>
</svg>